<svg xmlns="http://www.w3.org/2000/svg" xmlns:xlink="http://www.w3.org/1999/xlink" width="200" height="200"
     viewBox="0 0 134 134">
    <defs>
        <path id="a"
              d="M0 8.007A8.01 8.01 0 0 1 8.007 0h111.986A8.01 8.01 0 0 1 128 8.007v111.986a8.01 8.01 0 0 1-8.007 8.007H8.007A8.01 8.01 0 0 1 0 119.993V8.007z"/>
    </defs>
    <g fill="none" fill-rule="evenodd">
        <mask id="b" fill="#fff">
            <use xlink:href="#a"/>
        </mask>
        <use fill="#FFF" xlink:href="#a"/>
        <g fill-rule="nonzero" mask="url(#b)">
            <path stroke="#CCC"
                  d="M106.427 21.574C95.094 10.24 80.027 4 64 4s-31.094 6.241-42.426 17.574C10.24 32.906 4 47.974 4 64c0 16.027 6.241 31.094 17.574 42.426C32.906 117.76 47.974 124 64 124c16.026 0 31.094-6.241 42.426-17.574C117.76 95.094 124 80.026 124 64c0-16.027-6.241-31.094-17.573-42.426z"/>
            <path stroke="#CCC"
                  d="M113.788 57.78c-.548-1.211-1.066-2.356-1.278-3.43-.224-1.134-.185-2.424-.143-3.79.065-2.09.132-4.249-.718-6.297-.866-2.09-2.457-3.58-3.995-5.02-.982-.92-1.91-1.788-2.532-2.718-.632-.944-1.086-2.143-1.567-3.412-.743-1.961-1.51-3.989-3.094-5.572-1.583-1.583-3.61-2.35-5.571-3.094-1.27-.48-2.468-.935-3.412-1.567-.93-.623-1.799-1.55-2.719-2.532-1.44-1.539-2.93-3.13-5.02-3.996-2.049-.85-4.209-.783-6.298-.719-1.366.042-2.657.082-3.791-.142-1.074-.213-2.219-.73-3.43-1.278-1.84-.832-3.926-1.776-6.22-1.776-2.294 0-4.38.943-6.22 1.776-1.211.548-2.356 1.065-3.43 1.277-1.134.225-2.424.185-3.79.143-2.09-.065-4.249-.131-6.298.718-2.089.866-3.579 2.457-5.02 3.996-.92.981-1.788 1.91-2.717 2.531-.945.633-2.144 1.087-3.412 1.567-1.962.743-3.99 1.511-5.572 3.094-1.583 1.583-2.351 3.61-3.094 5.572-.481 1.269-.935 2.467-1.568 3.411-.622.93-1.55 1.799-2.532 2.719-1.538 1.44-3.13 2.93-3.996 5.02-.85 2.049-.783 4.209-.718 6.298.042 1.366.081 2.657-.143 3.791-.213 1.074-.73 2.219-1.278 3.43-.831 1.84-1.775 3.926-1.775 6.22 0 2.294.943 4.38 1.776 6.22.548 1.211 1.065 2.356 1.277 3.43.225 1.134.185 2.425.143 3.79-.065 2.09-.131 4.249.718 6.298.866 2.089 2.457 3.579 3.995 5.02.982.919 1.91 1.788 2.532 2.717.632.945 1.086 2.143 1.567 3.412.743 1.962 1.511 3.99 3.094 5.572 1.582 1.583 3.61 2.351 5.571 3.094 1.27.481 2.468.935 3.412 1.567.93.623 1.799 1.55 2.718 2.532 1.441 1.539 2.931 3.13 5.02 3.996 2.05.85 4.21.784 6.298.719 1.367-.042 2.657-.082 3.792.143 1.074.212 2.218.73 3.43 1.277 1.84.832 3.926 1.775 6.22 1.775 2.294 0 4.38-.942 6.22-1.775 1.211-.548 2.356-1.065 3.43-1.277 1.134-.225 2.425-.185 3.79-.143 2.09.065 4.249.131 6.297-.718 2.09-.866 3.58-2.457 5.02-3.995.92-.982 1.789-1.91 2.718-2.532.945-.632 2.143-1.086 3.412-1.567 1.962-.743 3.99-1.511 5.572-3.094 1.583-1.582 2.351-3.61 3.094-5.571.481-1.27.935-2.468 1.567-3.412.623-.93 1.55-1.799 2.532-2.718 1.539-1.441 3.13-2.931 3.996-5.02.85-2.05.784-4.21.72-6.298-.043-1.367-.083-2.657.142-3.792.212-1.073.73-2.218 1.277-3.43.832-1.84 1.775-3.926 1.775-6.22 0-2.294-.942-4.38-1.774-6.22z"/>
            <path stroke="#CCC"
                  d="M51.523 47.234c4.515 0 8.188-3.673 8.188-8.188 0-4.514-3.673-8.187-8.188-8.187-4.515 0-8.188 3.673-8.188 8.187 0 4.515 3.673 8.188 8.188 8.188zM95.062 53.603c0-4.515-3.673-8.188-8.188-8.188-4.515 0-8.188 3.673-8.188 8.188 0 4.514 3.673 8.188 8.188 8.188 4.515 0 8.188-3.674 8.188-8.188zM74.397 82.845c-4.514 0-8.188 3.673-8.188 8.188 0 4.515 3.674 8.188 8.188 8.188 4.515 0 8.188-3.673 8.188-8.188 0-4.515-3.673-8.188-8.188-8.188zM51.393 72.318c0-4.515-3.673-8.188-8.188-8.188-4.515 0-8.187 3.673-8.187 8.188 0 4.515 3.673 8.188 8.187 8.188 4.515 0 8.188-3.673 8.188-8.188zM72.188 68.159a6.115 6.115 0 0 0-6.109-6.108 6.115 6.115 0 0 0-6.108 6.108 6.115 6.115 0 0 0 6.108 6.108 6.115 6.115 0 0 0 6.109-6.108zM74.397 40.996a6.115 6.115 0 0 0 6.109-6.108 6.115 6.115 0 0 0-6.109-6.109 6.115 6.115 0 0 0-6.108 6.109 6.115 6.115 0 0 0 6.108 6.108zM93.112 68.289a6.115 6.115 0 0 0-6.108 6.108 6.115 6.115 0 0 0 6.108 6.109 6.115 6.115 0 0 0 6.109-6.109 6.115 6.115 0 0 0-6.109-6.108zM51.523 87.004a6.115 6.115 0 0 0-6.108 6.108 6.115 6.115 0 0 0 6.108 6.109 6.115 6.115 0 0 0 6.109-6.109 6.115 6.115 0 0 0-6.109-6.108zM34.888 57.632a6.115 6.115 0 0 0 6.108-6.109 6.115 6.115 0 0 0-6.108-6.108 6.115 6.115 0 0 0-6.109 6.108 6.115 6.115 0 0 0 6.109 6.109z"/>
            <path fill="#CCC"
                  d="M56.554 51.86a1.95 1.95 0 0 0-1.744 3.486l4.16 2.08a1.95 1.95 0 0 0 1.744-3.487l-4.16-2.08zM68.159 51.393c.499 0 .998-.19 1.378-.57l2.08-2.08a1.95 1.95 0 1 0-2.757-2.757l-2.08 2.08a1.95 1.95 0 0 0 1.379 3.327zM61.22 79.257l-2.08-2.08a1.95 1.95 0 1 0-2.757 2.758l2.08 2.08c.38.38.88.57 1.378.57a1.95 1.95 0 0 0 1.378-3.328zM79.935 68.86a1.95 1.95 0 1 0-2.757 2.757l2.08 2.08c.38.38.88.57 1.378.57a1.95 1.95 0 0 0 1.378-3.328l-2.08-2.079zM102.638 58.097l-4.159 2.08a1.95 1.95 0 1 0 1.744 3.487l4.159-2.08a1.95 1.95 0 1 0-1.744-3.487zM30.028 64.701a1.95 1.95 0 0 0-2.757 0l-2.08 2.08a1.95 1.95 0 1 0 2.757 2.756l2.08-2.08a1.95 1.95 0 0 0 0-2.756zM60.542 27.948c.38.38.88.571 1.379.571a1.95 1.95 0 0 0 1.378-3.328l-2.08-2.08a1.95 1.95 0 1 0-2.756 2.758l2.08 2.08zM61.92 97.401a1.95 1.95 0 0 0-1.949 1.95v2.08a1.95 1.95 0 0 0 3.899 0v-2.08a1.95 1.95 0 0 0-1.95-1.95zM89.655 85.496l-2.08 2.08a1.95 1.95 0 1 0 2.757 2.756l2.08-2.08a1.95 1.95 0 1 0-2.757-2.756zM36.266 85.496a1.95 1.95 0 1 0-2.757 2.757l2.08 2.079c.38.38.88.571 1.378.571a1.95 1.95 0 0 0 1.378-3.328l-2.079-2.08zM87.575 36.266c.38.38.88.571 1.379.571a1.95 1.95 0 0 0 1.378-3.328l-2.08-2.08a1.95 1.95 0 1 0-2.756 2.757l2.08 2.08zM95.192 45.155a1.957 1.957 0 0 0 1.95-1.95 1.957 1.957 0 0 0-1.95-1.95 1.957 1.957 0 0 0-1.95 1.95 1.957 1.957 0 0 0 1.95 1.95zM70.94 56.384a1.957 1.957 0 0 0-.572 1.378 1.957 1.957 0 0 0 1.95 1.95 1.957 1.957 0 0 0 1.95-1.95 1.957 1.957 0 0 0-1.95-1.95c-.512 0-1.016.208-1.378.572zM45.987 58.463a1.952 1.952 0 0 0-.572 1.378 1.952 1.952 0 0 0 1.95 1.95 1.957 1.957 0 0 0 1.949-1.95 1.957 1.957 0 0 0-1.95-1.95c-.514 0-1.016.209-1.377.572zM36.967 38.916a1.957 1.957 0 0 0 1.95-1.949 1.952 1.952 0 0 0-1.95-1.95 1.952 1.952 0 0 0-1.95 1.95 1.957 1.957 0 0 0 1.95 1.95zM68.86 77.179a1.957 1.957 0 0 0-.571 1.377 1.957 1.957 0 0 0 1.95 1.95 1.952 1.952 0 0 0 1.949-1.95 1.957 1.957 0 0 0-1.95-1.95c-.512 0-1.016.209-1.377.573zM70.238 101.56a1.957 1.957 0 0 0-1.95 1.95 1.952 1.952 0 0 0 1.95 1.95 1.952 1.952 0 0 0 1.95-1.95 1.957 1.957 0 0 0-1.95-1.95zM30.729 74.527a1.957 1.957 0 0 0-1.95 1.95 1.957 1.957 0 0 0 1.95 1.95 1.957 1.957 0 0 0 1.95-1.95 1.957 1.957 0 0 0-1.95-1.95z"/>
        </g>
    </g>
</svg>
